<svg xmlns="http://www.w3.org/2000/svg" xmlns:xlink="http://www.w3.org/1999/xlink" width="1024" height="620" viewBox="0 0 1024 620">
  <defs>
    <style>
      .cls-1 {
        isolation: isolate;
      }

      .cls-2 {
        fill: none;
      }

      .cls-3 {
        fill: #e2eafb;
      }

      .cls-4 {
        fill: #cbdcf9;
      }

      .cls-5 {
        fill: #f9faff;
      }

      .cls-6 {
        fill: #80a6f5;
      }

      .cls-7 {
        fill: #9ebbfa;
      }

      .cls-8 {
        fill: #b7cff8;
      }

      .cls-25, .cls-34, .cls-9 {
        fill: #207bff;
      }

      .cls-26, .cls-9 {
        opacity: 0.4;
      }

      .cls-10 {
        fill: #004bff;
        opacity: 0.5;
        mix-blend-mode: multiply;
      }

      .cls-11 {
        fill: #c4d7f9;
      }

      .cls-12 {
        fill: url(#_ÂÁ_Ï_ÌÌ_È_ËÂÌÚ_3);
      }

      .cls-13 {
        fill: #4aeaff;
      }

      .cls-14, .cls-33 {
        fill: #fff;
      }

      .cls-15 {
        fill: #bdf8ff;
      }

      .cls-16 {
        fill: url(#linear-gradient);
      }

      .cls-17 {
        fill: #eb1c24;
      }

      .cls-18 {
        fill: url(#linear-gradient-2);
      }

      .cls-19 {
        fill: url(#linear-gradient-3);
      }

      .cls-20 {
        fill: url(#linear-gradient-4);
      }

      .cls-21 {
        fill: url(#linear-gradient-5);
      }

      .cls-22 {
        fill: url(#linear-gradient-6);
      }

      .cls-23 {
        fill: url(#linear-gradient-7);
      }

      .cls-24 {
        fill: #92b3fa;
      }

      .cls-26 {
        mix-blend-mode: lighten;
        fill: url(#radial-gradient);
      }

      .cls-27 {
        fill: #00ffda;
      }

      .cls-28 {
        fill: #7fd1ca;
      }

      .cls-29 {
        fill: #1e1e1e;
      }

      .cls-30 {
        fill: url(#_ÂÁ_Ï_ÌÌ_È_ËÂÌÚ_14);
      }

      .cls-31 {
        fill: url(#_ÂÁ_Ï_ÌÌ_È_ËÂÌÚ_2);
      }

      .cls-32 {
        fill: #4880f7;
      }

      .cls-33 {
        opacity: 0.8;
      }

      .cls-34 {
        opacity: 0.72;
      }

      .cls-35, .cls-36, .cls-37, .cls-38 {
        fill: #3ae5fa;
      }

      .cls-35, .cls-39 {
        opacity: 0.1;
      }

      .cls-36 {
        opacity: 0.3;
      }

      .cls-38 {
        opacity: 0.7;
      }

      .cls-39, .cls-40 {
        fill: #51b2fb;
      }

      .cls-40 {
        opacity: 0.2;
      }
    </style>
    <radialGradient id="_ÂÁ_Ï_ÌÌ_È_ËÂÌÚ_3" data-name="¡ÂÁ˚ÏˇÌÌ˚È „‡‰ËÂÌÚ 3" cx="2917.97" cy="494.61" r="8.73" gradientTransform="translate(-2740.99)" gradientUnits="userSpaceOnUse">
      <stop offset="0" stop-color="#4aeaff"/>
      <stop offset="1" stop-color="#00709d"/>
    </radialGradient>
    <linearGradient id="linear-gradient" x1="423.4" y1="342.2" x2="423.4" y2="390.32" gradientTransform="translate(-232.09)" gradientUnits="userSpaceOnUse">
      <stop offset="0.02" stop-color="#dc2a21"/>
      <stop offset="0.06" stop-color="#c7201b"/>
      <stop offset="0.1" stop-color="#b61717"/>
      <stop offset="0.15" stop-color="#ab1113"/>
      <stop offset="0.22" stop-color="#a40e12"/>
      <stop offset="0.43" stop-color="#a20d11"/>
      <stop offset="0.79" stop-color="#6b0006"/>
    </linearGradient>
    <linearGradient id="linear-gradient-2" x1="409.43" y1="344.35" x2="409.43" y2="378.88" gradientTransform="translate(-232.09)" gradientUnits="userSpaceOnUse">
      <stop offset="0" stop-color="#ac1a27"/>
      <stop offset="0.08" stop-color="#9e151f"/>
      <stop offset="0.28" stop-color="#7d0a0e"/>
      <stop offset="0.44" stop-color="#680304"/>
      <stop offset="0.56" stop-color="#610000"/>
      <stop offset="0.73" stop-color="#520000"/>
      <stop offset="1" stop-color="#3f0000"/>
    </linearGradient>
    <linearGradient id="linear-gradient-3" x1="508.21" y1="362.13" x2="531.16" y2="362.13" gradientTransform="matrix(-1, 0, 0, 1, 738.45, 0)" gradientUnits="userSpaceOnUse">
      <stop offset="0" stop-color="#bd1349"/>
      <stop offset="0.24" stop-color="#bd124e"/>
      <stop offset="0.25" stop-color="#bd124e"/>
      <stop offset="1" stop-color="#7a0025"/>
    </linearGradient>
    <linearGradient id="linear-gradient-4" x1="501.37" y1="373.6" x2="531.25" y2="373.6" gradientTransform="matrix(-1, 0, 0, 1, 738.45, 0)" gradientUnits="userSpaceOnUse">
      <stop offset="0" stop-color="#282880"/>
      <stop offset="0.27" stop-color="#26257c"/>
      <stop offset="0.56" stop-color="#1f1b6f"/>
      <stop offset="0.85" stop-color="#140b5a"/>
      <stop offset="1" stop-color="#0d004c"/>
    </linearGradient>
    <linearGradient id="linear-gradient-5" x1="508.44" y1="373.6" x2="531.15" y2="373.6" xlink:href="#linear-gradient-3"/>
    <linearGradient id="linear-gradient-6" x1="513.04" y1="362.04" x2="541.58" y2="362.04" xlink:href="#linear-gradient-4"/>
    <linearGradient id="linear-gradient-7" x1="431.21" y1="372.46" x2="431.21" y2="356.12" gradientTransform="translate(-232.09)" gradientUnits="userSpaceOnUse">
      <stop offset="0" stop-color="#ec2d24"/>
      <stop offset="0.12" stop-color="#ec2824"/>
      <stop offset="0.25" stop-color="#eb1c24"/>
      <stop offset="1" stop-color="#74020d"/>
    </linearGradient>
    <radialGradient id="radial-gradient" cx="3019.3" cy="619.08" r="17.35" gradientTransform="matrix(0.74, 0.02, -0.03, 0.82, -2148.27, -206.49)" gradientUnits="userSpaceOnUse">
      <stop offset="0" stop-color="#00ddde" stop-opacity="0.52"/>
      <stop offset="0.09" stop-color="#2de6e7" stop-opacity="0.65"/>
      <stop offset="0.2" stop-color="#63f1f1" stop-opacity="0.8"/>
      <stop offset="0.3" stop-color="#8af8f9" stop-opacity="0.91"/>
      <stop offset="0.38" stop-color="#a2fdfd" stop-opacity="0.98"/>
      <stop offset="0.43" stop-color="#abffff"/>
      <stop offset="0.46" stop-color="#9ffcfd"/>
      <stop offset="0.51" stop-color="#7ff6f6"/>
      <stop offset="0.58" stop-color="#4aebeb"/>
      <stop offset="0.66" stop-color="#03dcdd"/>
      <stop offset="0.66" stop-color="#00dbdc"/>
      <stop offset="0.69" stop-color="#08dcdd" stop-opacity="0.97"/>
      <stop offset="0.74" stop-color="#1fdfe0" stop-opacity="0.88"/>
      <stop offset="0.8" stop-color="#44e5e5" stop-opacity="0.73"/>
      <stop offset="0.87" stop-color="#78eced" stop-opacity="0.53"/>
      <stop offset="0.94" stop-color="#baf5f6" stop-opacity="0.27"/>
      <stop offset="1" stop-color="#fff" stop-opacity="0"/>
    </radialGradient>
    <linearGradient id="_ÂÁ_Ï_ÌÌ_È_ËÂÌÚ_14" data-name="¡ÂÁ˚ÏˇÌÌ˚È „‡‰ËÂÌÚ 14" x1="2819.99" y1="376.58" x2="2917.08" y2="376.58" gradientTransform="translate(-2716.34 13.43) rotate(-2.88)" gradientUnits="userSpaceOnUse">
      <stop offset="0" stop-color="#003a6b"/>
      <stop offset="1" stop-color="#00204c"/>
    </linearGradient>
    <linearGradient id="_ÂÁ_Ï_ÌÌ_È_ËÂÌÚ_2" data-name="¡ÂÁ˚ÏˇÌÌ˚È „‡‰ËÂÌÚ 2" x1="2886.88" y1="204.72" x2="2936.08" y2="287.6" gradientTransform="translate(-2740.99)" gradientUnits="userSpaceOnUse">
      <stop offset="0" stop-color="#cad6e0"/>
      <stop offset="0.05" stop-color="#aec0d0"/>
      <stop offset="0.15" stop-color="#7998b1"/>
      <stop offset="0.25" stop-color="#4e7698"/>
      <stop offset="0.35" stop-color="#2c5c84"/>
      <stop offset="0.44" stop-color="#144976"/>
      <stop offset="0.53" stop-color="#053e6e"/>
      <stop offset="0.6" stop-color="#003a6b"/>
      <stop offset="1" stop-color="#00204c"/>
    </linearGradient>
  </defs>
  <title>robot</title>
  <g class="cls-1">
    <g id="prosabot">
      <g id="fondo">
        <rect class="cls-2" width="1024" height="620"/>
      </g>
      <g id="brazoDerecho">
        <g>
          <path class="cls-3" d="M276.18,383c-18.53-49.13-45.66-64.92-45.66-64.92s-11.22-1.65-20.35,14.16a24.25,24.25,0,0,0-1.3,21.21s47.94,44.54,60.39,59.2S283.14,401.44,276.18,383Z"/>
          <path class="cls-3" d="M276.18,383c-18.53-49.13-45.66-64.92-45.66-64.92s-11.22-1.65-20.35,14.16a24.25,24.25,0,0,0-1.3,21.21s47.94,44.54,60.39,59.2S283.14,401.44,276.18,383Z"/>
          <path class="cls-4" d="M273.71,391.12c-12.51-29-22.79-42.64-32.39-50.09-16.47-12.78-27.79-10-34.15.38a23,23,0,0,1,3-9.18c9.13-15.81,20.35-14.16,20.35-14.16s27.13,15.79,45.66,64.92c4.81,12.75,5.62,29,1.54,33C277.93,414.64,281.16,408.37,273.71,391.12Z"/>
          <path class="cls-3" d="M248.75,390.57c2.74,3,4.68,9.32,4.79,12.42a26.19,26.19,0,0,1-1.48,7.55,5.18,5.18,0,0,0,5.25-1.42c2.45-2.44,2.87-6.56,3.24-8.37S248.75,390.57,248.75,390.57Z"/>
          <path class="cls-5" d="M242.41,353.87a178.3,178.3,0,0,0-14.12-12.64c-2.46-1.87-.39-4,1.82-2.67,4.81,2.78,12,9.58,21.19,19.45,5.34,5.78,20.42,29.3,23.2,45.05C274,402.37,265.1,376.17,242.41,353.87Z"/>
          <path class="cls-6" d="M275.14,377.9l0,0a.62.62,0,0,0-.81.21c-5,8.63-16.46,15.37-27.75,10.88a.6.6,0,0,0-.78.27.53.53,0,0,0,.33.71c12,4.76,24-2.29,29.27-11.34A.52.52,0,0,0,275.14,377.9Z"/>
        </g>
        <path class="cls-7" d="M230.35,340.51c3.21-13.25.63-25.16-5.76-26.62s-14.16,8.1-17.37,21.34-.63,25.17,5.76,26.62S227.14,353.76,230.35,340.51Z"/>
      </g>
      <g id="torso">
        <path class="cls-3" d="M90.31,306.62c-6.77-.43-30.67,23.54-23.48,46.79s47.92,100.88,57.14,128,14.75,33.87,27.87,36.33,32.93,3.37,55.91-44.6,26.51-101.85,27.55-127.45-1.63-35.76-10.59-38.68C203.85,300.25,90.31,306.62,90.31,306.62Z"/>
        <path class="cls-5" d="M198.48,467.54c17.81-50.47,15.67-104.72,14-130.42-1.1-17.08-3.12-27.17-7.05-32.58-19-1.06-46.69-.6-70.18.15,12.56,33.14,31.12,88.93,34.21,146.42,2.06,38.34-3.23,57.08-10.57,66.67C170.86,515.39,185.22,505.09,198.48,467.54Z"/>
        <path class="cls-8" d="M226.71,309.19c0,5-35.14,12.69-70.59,12.75S85.5,314.4,85.49,309.42s35.15-5.42,70.6-5.48S226.7,304.22,226.71,309.19Z"/>
        <path class="cls-9" d="M205.27,310.21c0,3.44-24.2,8.78-48.62,8.82S108,313.81,108,310.37s24.22-3.76,48.64-3.8S205.27,306.77,205.27,310.21Z"/>
        <path class="cls-10" d="M190.41,312c0,1.32-16.69,3-33,3s-31.84-1.59-31.85-2.9,15.57-1.84,31.84-1.87S190.41,310.67,190.41,312Z"/>
        <path class="cls-11" d="M138.56,487.08c-3.77-20.34-9.39-86.85-22.75-133.79-6.71-23.53-22.48-40.12-37.75-34.86-10.84,3.73-15.12,22.41-11.23,35,7.2,23.26,47.92,100.88,57.14,128s14.75,33.87,27.87,36.33c6.75,1.27,15.29,2.11,25.11-3.91C163.66,516,144.8,520.76,138.56,487.08Z"/>
        <path class="cls-12" d="M185.49,497a24.37,24.37,0,0,1-8.08,1.33,37.3,37.3,0,0,1-9-.66c-1.69-.43-3.16-1.52-3.16-3.36h0a3.28,3.28,0,0,1,3.17-3.35s7,.77,8.64.76a61.51,61.51,0,0,0,8.78-.83c1.74,0,3.37.51,2.85,3C188.4,495.05,187.59,496.2,185.49,497Z"/>
        <path class="cls-13" d="M184.37,496.61a24.94,24.94,0,0,1-7,.95,38.63,38.63,0,0,1-7.81-.47c-1.46-.3-2.73-1.08-2.73-2.4h0a2.57,2.57,0,0,1,2.73-2.38s6,.55,7.48.54a64.84,64.84,0,0,0,7.59-.59c1.5,0,2.91.37,2.46,2.15C186.9,495.23,186.2,496.05,184.37,496.61Z"/>
        <path class="cls-6" d="M175.45,481.65c-16,0-35.55-3.46-56.68-12.15a.58.58,0,0,1-.31-.74.57.57,0,0,1,.74-.3c39.36,16.17,73.23,14.12,88,5.37a.56.56,0,0,1,.77.19.57.57,0,0,1-.2.78C200.77,479,189.51,481.65,175.45,481.65Z"/>
        <path class="cls-14" d="M175,480.38c-16,0-35.56-3.46-56.68-12.14a.57.57,0,1,1,.43-1.05c39.36,16.18,73.22,14.13,88,5.37a.57.57,0,0,1,.78.2.56.56,0,0,1-.2.77C200.36,477.7,189.1,480.38,175,480.38Z"/>
        <path class="cls-5" d="M232.32,319.74c3,61.51-5.84,90.61-5.84,90.61s8.47-46.47.65-91.39C226.06,312.8,231.85,310.13,232.32,319.74Z"/>
        <path class="cls-14" d="M90.91,315.45s7,4.21,32.58,6.59S182.76,324,182.76,324s-31,4.11-59.39,1.06S90.91,315.45,90.91,315.45Z"/>
        <path class="cls-15" d="M181.15,492.65c-1.24.1-2.67.19-4.09.2s-7.48-.54-7.48-.54a3.66,3.66,0,0,0-.57.05l2.76,5a54.77,54.77,0,0,0,5.62.16,25.55,25.55,0,0,0,6.51-.82Z"/>
        <g>
          <path class="cls-16" d="M175,361.89a21.72,21.72,0,0,1,13.55-20.13,21.33,21.33,0,0,1,2.42.31,20,20,0,0,1,16.63,19.05c0,.22,0,.44,0,.65V362a12.39,12.39,0,0,0-16.44-11.7c1.22-.44,1.17-.44-.08,0a12,12,0,0,0-4.18-.73c-6.92,0-11.83,5.58-11.83,12.28V362c0,6.69,4.8,12.16,11.72,12.16a12.13,12.13,0,0,0,3.82-.61,12.4,12.4,0,0,0,17-11.31A19.8,19.8,0,0,1,191.1,381.7a20.82,20.82,0,0,1-2.53.32A21.72,21.72,0,0,1,175,361.89Z"/>
          <path class="cls-17" d="M182.83,362a12.4,12.4,0,0,0,7.8,11.52,12.13,12.13,0,0,1-3.82.61c-6.92,0-11.72-5.47-11.72-12.16v-.11c0-6.7,4.91-12.28,11.83-12.28a12,12,0,0,1,4.18.73c1.25-.46,1.3-.46.08,0A12.4,12.4,0,0,0,182.83,362Z"/>
          <path class="cls-18" d="M186.81,341.69c.59,0,1.17,0,1.74.07a21.72,21.72,0,0,0,0,40.26q-.81.06-1.65.06c-12,0-20.81-9.09-20.81-20.19v-.12C166.11,350.67,174.76,341.69,186.81,341.69Z"/>
          <path class="cls-19" d="M207.62,362v0Z"/>
          <path class="cls-20" d="M191,373.43c1.3.46,1.27.47,0,0Z"/>
          <path class="cls-21" d="M191,373.43c1.3.46,1.27.47,0,0Z"/>
          <path class="cls-22" d="M195.22,374.43a12.3,12.3,0,0,1-4.59-.88l.34-.12c1.27.47,1.3.46,0,0a12.09,12.09,0,0,0,8-11.54v-.12a11.9,11.9,0,0,0-7.84-11.43l.07,0A12.39,12.39,0,0,1,207.62,362v.22A12.4,12.4,0,0,1,195.22,374.43Z"/>
          <path class="cls-23" d="M195.22,374.43a12.3,12.3,0,0,1-4.59-.88l.34-.12c1.27.47,1.3.46,0,0a12.09,12.09,0,0,0,8-11.54v-.12a11.9,11.9,0,0,0-7.84-11.43l.07,0A12.39,12.39,0,0,1,207.62,362v.22A12.4,12.4,0,0,1,195.22,374.43Z"/>
        </g>
      </g>
      <g id="brazoIzquierdo">
        <path class="cls-24" d="M105.87,352.52c4.87,17,1,33-8.62,35.74S75.86,379.51,71,362.53s-1-33,8.61-35.73S101,335.55,105.87,352.52Z"/>
        <path class="cls-25" d="M93.2,385.42c-7.89,0-17.24-9.19-22.14-22.48-5.6-15.18-3.31-30.06,5.1-33.16s19.81,6.73,25.4,21.91,3.31,30.05-5.1,33.15A9.26,9.26,0,0,1,93.2,385.42ZM79.49,330.33a8.62,8.62,0,0,0-2.94.51c-7.83,2.89-9.81,17.11-4.43,31.71s16.13,24.12,23.95,21.23,9.81-17.11,4.43-31.7C95.77,339.24,86.89,330.33,79.49,330.33Z"/>
        <g>
          <path class="cls-3" d="M57.48,421.47c-9.12-48.84,4.9-68.48,12.39-77.61,2.2-2.68,10.37-11.12,18.38-6.66,9.43,5.24,10.36,25,9.84,28.35-2,13.16-15.65,63.05-18.41,81.19C76.68,466.48,61.37,442.34,57.48,421.47Z"/>
          <path class="cls-4" d="M98.09,365.55c-.34,2.22-1,5.52-1.92,9.53-2.72,11.56-7.76,31.58-11.63,48.43-2.2,9.38-4,17.75-4.86,23.23,0,.3-.09.58-.14.86-1.76-23,10.11-65.14,11.83-86,.48-5.72,2.48-18.1-8.06-25.66a9.71,9.71,0,0,1,4.94,1.27C97.68,342.44,98.61,362.16,98.09,365.55Z"/>
          <path class="cls-5" d="M64.12,357.52c-14.85,24,1.36,80.64,1.36,80.64s-1.41-43,2.79-63S69.19,349.35,64.12,357.52Z"/>
          <path class="cls-4" d="M81.36,435.86c1.19,3.2,1.87,6,3,7.91.39.68,5.28,2.71,5.15,2.33-1.08-3.37-5.16-21.58-3.81-27.18C86.16,416.93,80.18,432.67,81.36,435.86Z"/>
          <path class="cls-6" d="M86.28,419.3a.57.57,0,0,1-.54-.13c-7.53-7-20.08-10.26-28.51-2.64a.58.58,0,0,1-.8,0,.57.57,0,0,1,0-.8c8.93-8.07,22.14-4.65,30,2.65a.56.56,0,0,1,0,.8A.48.48,0,0,1,86.28,419.3Z"/>
          <g>
            <path class="cls-26" d="M85.2,371.14C85,379,79,385.24,71.91,385s-12.65-6.78-12.41-14.66,6.18-14.09,13.28-13.87S85.44,363.26,85.2,371.14Z"/>
            <g>
              <path class="cls-27" d="M63.55,372c-.17,2.65,1.31,5.43,2.84,7.54a25.72,25.72,0,0,0,3.09,3.55s8.2-2.09,10.45-6.8c.47-1,2.62-7.15,2.62-7.15s.65-1.49-.56-2.17a36.32,36.32,0,0,1-4.16-2.36,12.44,12.44,0,0,0-2.77-1.78c-.79-.28-1.13-.12-2.57,0a47.22,47.22,0,0,1-4.89-.12c-1.44-.05-1.62,1.61-1.62,1.61S63.63,370.86,63.55,372Z"/>
              <path class="cls-28" d="M66,364.28s-2.35,6.58-2.43,7.69c-.34,5.31,5.93,11.09,5.93,11.09h0s8.2-2.1,10.45-6.8c.47-1,2.62-7.15,2.62-7.15s.65-1.49-.56-2.17a36.32,36.32,0,0,1-4.16-2.36,12.07,12.07,0,0,0-2.77-1.78c-.79-.28-1.13-.12-2.58,0a42,42,0,0,1-4.88-.13C66.16,362.62,66,364.28,66,364.28Zm1.29-.27,1.21,0a14.24,14.24,0,0,0,3.76,0c2.6-.49,3.4.83,4.65,1.72a23.89,23.89,0,0,0,3.19,1.86l1,.54a1.07,1.07,0,0,1-.06.3l0,.09c-.82,2.36-2.24,6.35-2.56,7-1,2-3.44,3.55-5.35,4.46a26.52,26.52,0,0,1-3.17,1.25,25.83,25.83,0,0,1-2.2-2.66c-1.23-1.71-2.7-4.54-2.55-6.83a49.58,49.58,0,0,1,2-7.46C67.17,364.31,67.27,364,67.27,364Z"/>
              <path class="cls-29" d="M63.55,372c-.2,3.08,1.83,6.32,3.57,8.49-1.59-2.13-3.2-5-3-7.77.08-1.12,2.44-7.69,2.44-7.69s.17-1.66,1.61-1.63a42.07,42.07,0,0,0,4.89.13c1.44-.11,1.79-.27,2.57,0a11.4,11.4,0,0,1,2.77,1.78,37.69,37.69,0,0,0,4.16,2.35l.1.07a1.33,1.33,0,0,0-.65-.78,37.89,37.89,0,0,1-4.16-2.36,11.73,11.73,0,0,0-2.77-1.78c-.79-.28-1.13-.12-2.57,0a44.58,44.58,0,0,1-4.89-.12c-1.44,0-1.62,1.63-1.62,1.63S63.63,370.86,63.55,372Z"/>
              <path class="cls-28" d="M71.73,372.11a.51.51,0,0,0,.12.49l-.1.38a.1.1,0,0,0,.07.13l.31.08a.09.09,0,0,0,.13-.07l.11-.39a.5.5,0,0,0,.34-.36.51.51,0,1,0-1-.26Z"/>
              <path class="cls-28" d="M71.73,369.48l-.2.75,2.27.6.2-.75a1.17,1.17,0,1,0-2.27-.6Z"/>
              <path class="cls-28" d="M67.61,366.11s-1.43,4.85-1.49,5.68c-.3,3.93,4.09,8.48,4.09,8.48h0s5.82-1.63,7.47-5.15c.34-.74,1.93-5.36,1.93-5.36s.47-1.12-.38-1.61a25.51,25.51,0,0,1-2.93-1.7c-.5-.38-1-.68-1.33-.92a6.3,6.3,0,0,0-.83-.45h0a3.25,3.25,0,0,0-1.71-.14,24.3,24.3,0,0,1-3.44,0C68,364.9,67.61,366.11,67.61,366.11Zm2.09,4.3a.64.64,0,0,1,.78-.45l.17,0,.19-.75a2.09,2.09,0,1,1,4,1.06l-.2.76.17,0a.64.64,0,0,1,.45.78l-.78,2.95a.63.63,0,0,1-.77.46l-4.38-1.16a.64.64,0,0,1-.45-.78Z"/>
              <path class="cls-29" d="M66.12,371.79c-.21,2.82,2,6,3.25,7.52-1.26-1.68-2.88-4.36-2.69-6.81.06-.83,1.49-5.67,1.49-5.67s.34-1.22,1.36-1.21a24.28,24.28,0,0,0,3.44,0,3.22,3.22,0,0,1,1.7.14h0a5.3,5.3,0,0,1,.83.45c.37.23.83.54,1.33.91a21.56,21.56,0,0,0,2.85,1.66,1,1,0,0,0-.48-.67,25.7,25.7,0,0,1-2.93-1.71,13.66,13.66,0,0,0-1.33-.9,6.19,6.19,0,0,0-.82-.46h0a3.24,3.24,0,0,0-1.7-.14,25.88,25.88,0,0,1-3.44,0c-1,0-1.37,1.2-1.37,1.2S66.19,371,66.12,371.79Z"/>
            </g>
          </g>
        </g>
      </g>
      <g id="cabeza">
        <g>
          <path class="cls-3" d="M95.69,287.71c16.14,20.77,65.52,16.81,79.28,15.5s37.07-3.71,45.47-29,4.19-64-18.89-84.06S116.68,173.3,95.69,200.37,90.1,280.5,95.69,287.71Z"/>
          <path class="cls-14" d="M100,205.89c.93-.32,20-15.15,54.53-18.11,11.88-1,30.41,0,42.3,1.65-1.18-1.25-18.26-11.12-53.49-7.45C134.7,182.88,114.77,188.26,100,205.89Z"/>
          <path class="cls-5" d="M162.74,199.76c-11.12.18-22.26,1-32.74,5l-.24.1c10.88,23,11.77,53.05,5.4,74.51a45.31,45.31,0,0,1-9.26,17.4c19.21,3.38,40.71,1.62,49.07.82,9.1-.87,22.38-2.22,32.76-10.36a53.22,53.22,0,0,0,3-7.86c6.45-21.74,5.45-52.26-5.84-75.41A178.72,178.72,0,0,0,162.74,199.76Z"/>
          <path class="cls-30" d="M122.54,220.21c6.41-8.71,23.87-11,45.76-12.29,28.24-1.69,37.79,3.42,40.67,6.69s7.89,19.48,6.82,35.24-1.25,20.5-7.74,24.42-25.21,7.76-37.31,8.05c-22.93.56-34.49-.56-42.15-5.06-3.92-2.3-8.9-14.7-9.68-30S119.22,224.73,122.54,220.21Z"/>
          <path class="cls-31" d="M167.51,210.35c-13.6.79-25.41,2-33.72,4.9,7.27,20.18,7.32,44.11,1.92,61.82-.06.2-.13.39-.2.6,7.27,2.09,17.67,2.6,34.34,2.2,11.61-.27,29.57-3.86,35.8-7.52a11.11,11.11,0,0,0,4.87-5.08,105.52,105.52,0,0,0-3.59-50.16,6.08,6.08,0,0,0-.4-.51C203.76,213.55,194.6,208.78,167.51,210.35Z"/>
          <path class="cls-7" d="M107.69,234.7c-.38,8.56-5.16,15.3-10.68,15.06s-9.68-7.39-9.3-15.95,5.16-15.3,10.68-15.06S108.07,226.14,107.69,234.7Z"/>
          <path class="cls-32" d="M103.32,234.06c-.26,6-3.19,10.76-6.54,10.61s-5.84-5.14-5.57-11.15,3.2-10.76,6.54-10.61S103.59,228.05,103.32,234.06Z"/>
          <path class="cls-25" d="M103.41,234.51l-.56,0,.56,0a21,21,0,0,0-2.51-11.4c-1.86-3.19-4.46-5-7.33-5.14-5.8-.25-10.88,6.74-11.27,15.6s4,16.28,9.84,16.54h.31C98.14,250.11,103,243.21,103.41,234.51ZM93.52,219.1c2.47.11,4.74,1.74,6.4,4.58a19.92,19.92,0,0,1,2.36,10.78c-.36,8.23-4.89,14.73-10.09,14.52s-9.13-7.12-8.76-15.36c.36-8.09,4.74-14.52,9.82-14.52Z"/>
          <path class="cls-5" d="M92.82,254.55l4.06.14s1.72,16.82,6.57,26.7,11.74,13.05,11.74,13.05-10.38-3.36-16.59-16.17C94.13,269,92.82,254.55,92.82,254.55Z"/>
          <path class="cls-33" d="M126.34,221.5l0,0a2.14,2.14,0,0,0,3.08.73c2-1.35,5-3.36,6.7-4.3,2.73-1.49,16.22-6.47,16.22-6.47s-13.52.28-25,6.52A2.56,2.56,0,0,0,126.34,221.5Z"/>
        </g>
        <path class="cls-34" d="M115.75,232.73c0,2.66-1.23,4.81-2.76,4.81s-2.76-2.15-2.76-4.81,1.24-4.81,2.76-4.81S115.75,230.07,115.75,232.73Z"/>
      </g>
      <g id="ojos">
        <g>
          <rect class="cls-35" x="148.52" y="226.2" width="19.48" height="25.44" rx="6.99"/>
          <rect class="cls-35" x="150.56" y="228.94" width="15.39" height="19.97" rx="6.99"/>
          <rect class="cls-36" x="153.15" y="231.5" width="10.68" height="15.55" rx="4.34"/>
          <path class="cls-37" d="M162.69,237.5h-8.77a.43.43,0,0,1,0-.85h8.77a.43.43,0,1,1,0,.85Z"/>
          <path class="cls-37" d="M162.69,239.35h-8.77a.43.43,0,0,1,0-.85h8.77a.43.43,0,1,1,0,.85Z"/>
          <path class="cls-37" d="M162.69,241.27h-8.77a.43.43,0,0,1,0-.85h8.77a.43.43,0,1,1,0,.85Z"/>
          <path class="cls-37" d="M161.58,233.94H155a.43.43,0,0,1,0-.85h6.54a.43.43,0,0,1,0,.85Z"/>
          <path class="cls-37" d="M162.69,235.86h-8.77a.42.42,0,1,1,0-.84h8.77a.42.42,0,1,1,0,.84Z"/>
          <path class="cls-37" d="M162.69,243.55h-8.77a.43.43,0,0,1,0-.85h8.77a.43.43,0,1,1,0,.85Z"/>
          <path class="cls-37" d="M162.69,245.41h-8.77a.43.43,0,0,1,0-.85h8.77a.43.43,0,1,1,0,.85Z"/>
        </g>
        <g>
          <rect class="cls-35" x="179.55" y="226.2" width="19.48" height="25.44" rx="6.99"/>
          <rect class="cls-35" x="181.6" y="228.94" width="15.39" height="19.97" rx="6.99"/>
          <rect class="cls-36" x="184.19" y="231.5" width="10.68" height="15.55" rx="4.34"/>
          <path class="cls-37" d="M193.73,237.5H185a.43.43,0,1,1,0-.85h8.77a.43.43,0,0,1,0,.85Z"/>
          <path class="cls-37" d="M193.73,239.35H185a.43.43,0,1,1,0-.85h8.77a.43.43,0,0,1,0,.85Z"/>
          <path class="cls-37" d="M193.73,241.27H185a.43.43,0,1,1,0-.85h8.77a.43.43,0,0,1,0,.85Z"/>
          <path class="cls-37" d="M192.61,233.94h-6.53a.43.43,0,1,1,0-.85h6.53a.43.43,0,1,1,0,.85Z"/>
          <path class="cls-37" d="M193.73,235.86H185a.42.42,0,1,1,0-.84h8.77a.42.42,0,1,1,0,.84Z"/>
          <path class="cls-37" d="M193.73,243.55H185a.43.43,0,1,1,0-.85h8.77a.43.43,0,0,1,0,.85Z"/>
          <path class="cls-37" d="M193.73,245.41H185a.43.43,0,1,1,0-.85h8.77a.43.43,0,0,1,0,.85Z"/>
        </g>
      </g>
      <path id="boca" class="cls-38" d="M162.31,264.69c8.79,1.12,24.56,2,24.56,2s-14,1.42-23-.15S152.86,263.49,162.31,264.69Z"/>
      <g id="sombra">
        <g id="Sombra-2" data-name="Sombra">
          <ellipse class="cls-39" cx="165.78" cy="535.68" rx="77.32" ry="17.36"/>
          <ellipse class="cls-40" cx="165.78" cy="535.68" rx="60.23" ry="11.04"/>
          <ellipse class="cls-40" cx="165.78" cy="535.68" rx="36.27" ry="6.65"/>
        </g>
      </g>
    </g>
  </g>
</svg>
