<svg xmlns="http://www.w3.org/2000/svg" xmlns:xlink="http://www.w3.org/1999/xlink" width="1024" height="620" viewBox="0 0 1024 620">
  <defs>
    <style>
      .cls-1 {
        isolation: isolate;
      }

      .cls-2 {
        fill: none;
      }

      .cls-3, .cls-4 {
        fill: #51b2fb;
      }

      .cls-3, .cls-37 {
        opacity: 0.1;
      }

      .cls-4 {
        opacity: 0.2;
      }

      .cls-5 {
        fill: #e3ebfc;
      }

      .cls-6 {
        fill: #ccddfa;
      }

      .cls-7 {
        fill: #fafbff;
      }

      .cls-8 {
        fill: #80a7f6;
      }

      .cls-9 {
        fill: #9fbcfb;
      }

      .cls-10 {
        fill: #b8d0f9;
      }

      .cls-11, .cls-27, .cls-36 {
        fill: #207bff;
      }

      .cls-11, .cls-28 {
        opacity: 0.4;
      }

      .cls-12 {
        fill: #004bff;
        opacity: 0.5;
        mix-blend-mode: multiply;
      }

      .cls-13 {
        fill: #c5d8fa;
      }

      .cls-14 {
        fill: url(#_ÂÁ_Ï_ÌÌ_È_ËÂÌÚ_30);
      }

      .cls-15 {
        fill: #4aebff;
      }

      .cls-16, .cls-35 {
        fill: #fff;
      }

      .cls-17 {
        fill: #bef9ff;
      }

      .cls-18 {
        fill: url(#linear-gradient);
      }

      .cls-19 {
        fill: #ec1c24;
      }

      .cls-20 {
        fill: url(#linear-gradient-2);
      }

      .cls-21 {
        fill: url(#linear-gradient-3);
      }

      .cls-22 {
        fill: url(#linear-gradient-4);
      }

      .cls-23 {
        fill: url(#linear-gradient-5);
      }

      .cls-24 {
        fill: url(#linear-gradient-6);
      }

      .cls-25 {
        fill: url(#linear-gradient-7);
      }

      .cls-26 {
        fill: #93b4fb;
      }

      .cls-28 {
        mix-blend-mode: lighten;
        fill: url(#radial-gradient);
      }

      .cls-29 {
        fill: #00ffda;
      }

      .cls-30 {
        fill: #7fd1ca;
      }

      .cls-31 {
        fill: #1e1e1e;
      }

      .cls-32 {
        fill: url(#_ÂÁ_Ï_ÌÌ_È_ËÂÌÚ_14);
      }

      .cls-33 {
        fill: url(#_ÂÁ_Ï_ÌÌ_È_ËÂÌÚ_18);
      }

      .cls-34 {
        fill: #4880f8;
      }

      .cls-35 {
        opacity: 0.8;
      }

      .cls-36 {
        opacity: 0.72;
      }

      .cls-37, .cls-38, .cls-39, .cls-40 {
        fill: #3ae6fb;
      }

      .cls-38 {
        opacity: 0.3;
      }

      .cls-40 {
        opacity: 0.7;
      }
    </style>
    <radialGradient id="_ÂÁ_Ï_ÌÌ_È_ËÂÌÚ_30" data-name="¡ÂÁ˚ÏˇÌÌ˚È „‡‰ËÂÌÚ 30" cx="4503.05" cy="484.18" r="5.94" gradientTransform="translate(-4284.51)" gradientUnits="userSpaceOnUse">
      <stop offset="0" stop-color="#4aebff"/>
      <stop offset="1" stop-color="#00709e"/>
    </radialGradient>
    <linearGradient id="linear-gradient" x1="183.11" y1="380.38" x2="183.11" y2="413.15" gradientTransform="translate(45.19)" gradientUnits="userSpaceOnUse">
      <stop offset="0.02" stop-color="#dd2a21"/>
      <stop offset="0.06" stop-color="#c8201b"/>
      <stop offset="0.1" stop-color="#b71717"/>
      <stop offset="0.15" stop-color="#ac1113"/>
      <stop offset="0.22" stop-color="#a50e12"/>
      <stop offset="0.43" stop-color="#a30d11"/>
      <stop offset="0.79" stop-color="#6b0006"/>
    </linearGradient>
    <linearGradient id="linear-gradient-2" x1="173.59" y1="381.85" x2="173.59" y2="405.36" gradientTransform="translate(45.19)" gradientUnits="userSpaceOnUse">
      <stop offset="0" stop-color="#ad1a27"/>
      <stop offset="0.08" stop-color="#9e151f"/>
      <stop offset="0.28" stop-color="#7d090e"/>
      <stop offset="0.44" stop-color="#680304"/>
      <stop offset="0.56" stop-color="#610000"/>
      <stop offset="0.73" stop-color="#520000"/>
      <stop offset="1" stop-color="#3f0000"/>
    </linearGradient>
    <linearGradient id="linear-gradient-3" x1="760.89" y1="393.95" x2="776.54" y2="393.95" gradientTransform="matrix(-1, 0, 0, 1, 1015.73, 0)" gradientUnits="userSpaceOnUse">
      <stop offset="0" stop-color="#be1349"/>
      <stop offset="0.24" stop-color="#be124e"/>
      <stop offset="0.25" stop-color="#be124e"/>
      <stop offset="1" stop-color="#7a0025"/>
    </linearGradient>
    <linearGradient id="linear-gradient-4" x1="756.26" y1="401.77" x2="776.61" y2="401.77" gradientTransform="matrix(-1, 0, 0, 1, 1015.73, 0)" gradientUnits="userSpaceOnUse">
      <stop offset="0" stop-color="#282881"/>
      <stop offset="0.27" stop-color="#26257d"/>
      <stop offset="0.55" stop-color="#1f1b70"/>
      <stop offset="0.84" stop-color="#150c5b"/>
      <stop offset="1" stop-color="#0d004c"/>
    </linearGradient>
    <linearGradient id="linear-gradient-5" x1="761.07" y1="401.77" x2="776.54" y2="401.77" xlink:href="#linear-gradient-3"/>
    <linearGradient id="linear-gradient-6" x1="764.2" y1="393.89" x2="783.64" y2="393.89" xlink:href="#linear-gradient-4"/>
    <linearGradient id="linear-gradient-7" x1="188.43" y1="400.99" x2="188.43" y2="389.86" gradientTransform="translate(45.19)" gradientUnits="userSpaceOnUse">
      <stop offset="0" stop-color="#ed2d24"/>
      <stop offset="0.12" stop-color="#ed2824"/>
      <stop offset="0.25" stop-color="#ec1c24"/>
      <stop offset="1" stop-color="#74020d"/>
    </linearGradient>
    <radialGradient id="radial-gradient" cx="3075.17" cy="651.77" r="12.59" gradientTransform="matrix(0.74, 0.02, -0.03, 0.82, -2121.15, -206.49)" gradientUnits="userSpaceOnUse">
      <stop offset="0" stop-color="#00ddde" stop-opacity="0.52"/>
      <stop offset="0.09" stop-color="#2de6e7" stop-opacity="0.65"/>
      <stop offset="0.2" stop-color="#63f1f1" stop-opacity="0.8"/>
      <stop offset="0.3" stop-color="#8af8f9" stop-opacity="0.91"/>
      <stop offset="0.38" stop-color="#a2fdfd" stop-opacity="0.98"/>
      <stop offset="0.43" stop-color="#abffff"/>
      <stop offset="0.46" stop-color="#9ffcfd"/>
      <stop offset="0.51" stop-color="#7ff6f6"/>
      <stop offset="0.58" stop-color="#4aebeb"/>
      <stop offset="0.66" stop-color="#03dcdd"/>
      <stop offset="0.66" stop-color="#00dbdc"/>
      <stop offset="0.69" stop-color="#08dcdd" stop-opacity="0.97"/>
      <stop offset="0.74" stop-color="#1fdfe0" stop-opacity="0.88"/>
      <stop offset="0.8" stop-color="#44e5e5" stop-opacity="0.73"/>
      <stop offset="0.87" stop-color="#78eced" stop-opacity="0.53"/>
      <stop offset="0.94" stop-color="#baf5f6" stop-opacity="0.27"/>
      <stop offset="1" stop-color="#fff" stop-opacity="0"/>
    </radialGradient>
    <linearGradient id="_ÂÁ_Ï_ÌÌ_È_ËÂÌÚ_14" data-name="¡ÂÁ˚ÏˇÌÌ˚È „‡‰ËÂÌÚ 14" x1="4418.18" y1="525.5" x2="4484.3" y2="525.5" gradientTransform="translate(-4259.86 13.43) rotate(-2.88)" gradientUnits="userSpaceOnUse">
      <stop offset="0" stop-color="#003a6b"/>
      <stop offset="1" stop-color="#00204c"/>
    </linearGradient>
    <linearGradient id="_ÂÁ_Ï_ÌÌ_È_ËÂÌÚ_18" data-name="¡ÂÁ˚ÏˇÌÌ˚È „‡‰ËÂÌÚ 18" x1="4481.88" y1="286.75" x2="4515.39" y2="343.2" gradientTransform="translate(-4284.51)" gradientUnits="userSpaceOnUse">
      <stop offset="0" stop-color="#cbd7e1"/>
      <stop offset="0.05" stop-color="#aec0d0"/>
      <stop offset="0.15" stop-color="#7998b2"/>
      <stop offset="0.26" stop-color="#4e7698"/>
      <stop offset="0.35" stop-color="#2c5c85"/>
      <stop offset="0.44" stop-color="#144976"/>
      <stop offset="0.53" stop-color="#053e6e"/>
      <stop offset="0.6" stop-color="#003a6b"/>
      <stop offset="1" stop-color="#00204c"/>
    </linearGradient>
  </defs>
  <title>robot</title>
  <g class="cls-1">
    <g id="prosabot">
      <g id="fondo">
        <rect class="cls-2" width="1024" height="620"/>
      </g>
      <g id="sombra">
        <ellipse class="cls-3" cx="202.62" cy="518.3" rx="47.66" ry="10.7"/>
        <ellipse class="cls-4" cx="202.62" cy="518.3" rx="37.13" ry="6.8"/>
        <path class="cls-4" d="M225,518.3c0,2.26-10,4.1-22.35,4.1s-22.36-1.84-22.36-4.1,10-4.1,22.36-4.1S225,516,225,518.3Z"/>
      </g>
      <g id="brazoIzquierdo">
        <g>
          <path class="cls-5" d="M311,373.61c-28.77,17.8-48.32,17.76-52.62,17.48a2.77,2.77,0,0,1-1.71-.71c-1.73-1.61-5.48-6.42-3.21-16.81,1.56-7.18,9.66-12.93,10.27-13C270,360,309.4,356,321.61,353.3,334.88,350.35,323.31,366,311,373.61Z"/>
          <path class="cls-6" d="M253.47,373.52a27.2,27.2,0,0,0-.65,8.43c.12-1,.29-2.05.54-3.18,2-9.06,7.46-10.84,11.29-12,13.73-4.05,43.64-6.89,57.72-13.7l-.76.15c-12.21,2.7-51.61,6.66-57.87,7.28C263.13,360.59,255,366.34,253.47,373.52Z"/>
          <path class="cls-7" d="M268.77,385.11c18.86,3.55,50.88-20.68,50.88-20.68s-27,11.47-40.69,13.71S262.33,383.9,268.77,385.11Z"/>
          <path class="cls-6" d="M314.28,354.91a46.27,46.27,0,0,0,4.3-3.84c.33-.41.42-4,.21-3.85-1.88,1.52-12.44,8.59-16.33,9.11C301.08,356.51,312.54,356.44,314.28,354.91Z"/>
          <path class="cls-8" d="M302.56,355.85a.41.41,0,0,1,.05.37C300,362.72,301,371.5,307.93,375a.39.39,0,0,1,.17.52.37.37,0,0,1-.51.17c-7.32-3.69-8.4-12.92-5.7-19.73a.39.39,0,0,1,.5-.22A.45.45,0,0,1,302.56,355.85Z"/>
        </g>
        <path class="cls-9" d="M264.93,376.69c-.89,10.33-5.22,18.4-9.67,18s-7.32-9.08-6.43-19.42,5.22-18.26,9.68-18C264.94,357.61,265.83,366.35,264.93,376.69Z"/>
      </g>
      <g id="curerpo">
        <path class="cls-5" d="M159.52,356.15c-4.61-.3-20.89,16-16,31.87s32.63,68.7,38.91,87.21,10.05,23.06,19,24.74,22.43,2.29,38.08-30.38,18.05-69.37,18.76-86.8-1.11-24.35-7.21-26.34C236.85,351.81,159.52,356.15,159.52,356.15Z"/>
        <path class="cls-7" d="M233.19,465.74c12.13-34.37,10.67-71.31,9.54-88.82-.75-11.63-2.12-18.5-4.8-22.19-12.93-.72-31.8-.41-47.8.11,8.55,22.56,21.2,60.56,23.3,99.71,1.4,26.12-2.2,38.88-7.2,45.41C214.38,498.34,224.16,491.32,233.19,465.74Z"/>
        <path class="cls-10" d="M252.41,357.9c0,3.39-23.93,8.65-48.07,8.69s-48.1-5.14-48.11-8.53,23.94-3.7,48.09-3.74S252.41,354.51,252.41,357.9Z"/>
        <path class="cls-11" d="M237.81,358.59c0,2.34-16.48,6-33.11,6s-33.13-3.56-33.14-5.9,16.49-2.56,33.12-2.58S237.81,356.25,237.81,358.59Z"/>
        <path class="cls-12" d="M227.69,359.81c0,.89-11.37,2-22.45,2.05s-21.68-1.08-21.69-2,10.61-1.25,21.69-1.27S227.69,358.91,227.69,359.81Z"/>
        <path class="cls-13" d="M192.38,479.05c-2.57-13.85-6.39-59.15-15.5-91.11-4.56-16-15.3-27.33-25.7-23.75-7.38,2.54-10.3,15.26-7.65,23.83,4.9,15.84,32.63,68.7,38.91,87.21s10.05,23.06,19,24.74c4.6.87,10.41,1.43,17.1-2.67C209.47,498.73,196.63,502,192.38,479.05Z"/>
        <path class="cls-14" d="M224.34,485.8a16.63,16.63,0,0,1-5.5.91,25.85,25.85,0,0,1-6.16-.45,2.47,2.47,0,0,1-2.15-2.29h0a2.22,2.22,0,0,1,2.16-2.28s4.73.53,5.88.51a41.23,41.23,0,0,0,6-.56c1.19,0,2.3.35,1.94,2.05A3,3,0,0,1,224.34,485.8Z"/>
        <path class="cls-15" d="M223.58,485.55a16.71,16.71,0,0,1-4.76.64,27.08,27.08,0,0,1-5.32-.32c-1-.21-1.86-.74-1.86-1.63h0a1.77,1.77,0,0,1,1.87-1.63s4.09.38,5.09.37a44.38,44.38,0,0,0,5.17-.4c1,0,2,.25,1.67,1.46C225.3,484.61,224.82,485.16,223.58,485.55Z"/>
        <path class="cls-8" d="M217.51,475.35c-10.88,0-24.22-2.36-38.61-8.27a.39.39,0,1,1,.3-.71c26.8,11,49.87,9.62,60,3.66a.39.39,0,0,1,.4.66C234.75,473.52,227.08,475.35,217.51,475.35Z"/>
        <path class="cls-16" d="M217.22,474.49c-10.88,0-24.21-2.36-38.6-8.27a.38.38,0,0,1,.29-.71c26.81,11,49.87,9.62,60,3.65a.4.4,0,0,1,.53.14.38.38,0,0,1-.14.53C234.47,472.66,226.8,474.49,217.22,474.49Z"/>
        <path class="cls-7" d="M256.24,365.09c2.05,41.89-4,61.71-4,61.71s5.78-31.65.45-62.24C252,360.36,255.92,358.54,256.24,365.09Z"/>
        <path class="cls-16" d="M159.92,362.16s4.77,2.87,22.2,4.49S222.48,368,222.48,368s-21.14,2.8-40.45.72S159.92,362.16,159.92,362.16Z"/>
        <path class="cls-17" d="M221.39,482.84c-.85.08-1.83.14-2.79.14s-5.09-.37-5.09-.37a2.34,2.34,0,0,0-.39,0l1.88,3.43c1,.09,2.3.13,3.82.11a17.13,17.13,0,0,0,4.43-.56Z"/>
        <g>
          <path class="cls-18" d="M217.2,393.79a14.8,14.8,0,0,1,9.22-13.71,14.29,14.29,0,0,1,1.65.21,13.62,13.62,0,0,1,11.33,13c0,.15,0,.29,0,.44v.16h0a8.45,8.45,0,0,0-11.2-8c.84-.3.81-.3-.05,0a8.18,8.18,0,0,0-2.84-.5,8.08,8.08,0,0,0-8.06,8.36v.08a8,8,0,0,0,8,8.28,8.19,8.19,0,0,0,2.6-.42,8.34,8.34,0,0,0,3.13.6,8.44,8.44,0,0,0,8.44-8.3,13.5,13.5,0,0,1-11.25,13.26,15.85,15.85,0,0,1-1.72.21A14.8,14.8,0,0,1,217.2,393.79Z"/>
          <path class="cls-19" d="M222.53,393.89a8.44,8.44,0,0,0,5.31,7.84,8.19,8.19,0,0,1-2.6.42,8,8,0,0,1-8-8.28v-.08a8.08,8.08,0,0,1,8.06-8.36,8.18,8.18,0,0,1,2.84.5c.86-.32.89-.32.05,0A8.45,8.45,0,0,0,222.53,393.89Z"/>
          <path class="cls-20" d="M225.24,380c.4,0,.79,0,1.18.05a14.8,14.8,0,0,0,0,27.42c-.37,0-.75,0-1.12,0-8.21,0-14.18-6.19-14.18-13.75v-.08C211.14,386.15,217,380,225.24,380Z"/>
          <path class="cls-21" d="M239.41,393.89v0Z"/>
          <path class="cls-22" d="M228.07,401.65Z"/>
          <path class="cls-23" d="M228.07,401.65Z"/>
          <path class="cls-24" d="M231,402.33a8.34,8.34,0,0,1-3.13-.6l.23-.08h0a8.23,8.23,0,0,0,5.44-7.86v-.08a8.1,8.1,0,0,0-5.34-7.78l0,0a8.45,8.45,0,0,1,11.2,8V394A8.44,8.44,0,0,1,231,402.33Z"/>
          <path class="cls-25" d="M231,402.33a8.34,8.34,0,0,1-3.13-.6l.23-.08h0a8.23,8.23,0,0,0,5.44-7.86v-.08a8.1,8.1,0,0,0-5.34-7.78l0,0a8.45,8.45,0,0,1,11.2,8V394A8.44,8.44,0,0,1,231,402.33Z"/>
        </g>
      </g>
      <g id="brazoDerecho">
        <path class="cls-26" d="M169.26,387.34c3.32,11.56.69,22.46-5.87,24.34s-14.57-6-17.89-17.52-.69-22.45,5.87-24.33S165.94,375.78,169.26,387.34Z"/>
        <path class="cls-27" d="M161.29,408.83a.42.42,0,0,1,0-.84,4.81,4.81,0,0,0,3.86-2.7c2.72-4.68,2.2-13.52-1.22-20.57-4.09-8.41-10.63-11.77-14.35-10.06a.41.41,0,1,1-.35-.75c4.67-2.16,11.6,2.53,15.45,10.45,3.53,7.27,4,16.45,1.19,21.35a5.62,5.62,0,0,1-4.53,3.11Z"/>
        <g>
          <path class="cls-5" d="M125.38,430.46c2.75-33.73,14.39-49.43,17.16-52.74a2.81,2.81,0,0,1,1.59-.94c2.32-.44,8.42-.6,15.44,7.39,4.85,5.52,4.66,15.45,4.35,16-3.22,5.41-23.42,39.47-28.48,50.9C129.93,463.47,124.2,444.87,125.38,430.46Z"/>
          <path class="cls-6" d="M159.61,384.2a27.41,27.41,0,0,0-6.41-5.53c.74.69,1.48,1.46,2.25,2.33,6.11,7,4.29,12.43,2.92,16.18-4.89,13.46-20.35,39.21-23.22,54.59.11-.22.22-.45.33-.7,5.06-11.43,25.26-45.49,28.48-50.9C164.27,399.65,164.46,389.72,159.61,384.2Z"/>
          <path class="cls-7" d="M141.19,389.63c-14,13.08-13.55,53.23-13.55,53.23s6.79-28.54,13.11-40.89S146,385.16,141.19,389.63Z"/>
          <path class="cls-6" d="M138.49,444.19a44.23,44.23,0,0,0,.54,5.73c.14.51,3,2.72,3,2.45-.11-2.41.47-15.1,2.36-18.54C145,432.61,138.28,441.88,138.49,444.19Z"/>
          <path class="cls-8" d="M144.69,434.19a.38.38,0,0,1-.33-.18c-3.7-5.93-11.36-10.34-18.26-6.85a.39.39,0,0,1-.52-.17.39.39,0,0,1,.17-.52c7.31-3.7,15.38.91,19.26,7.13a.38.38,0,0,1-.12.53A.36.36,0,0,1,144.69,434.19Z"/>
        </g>
        <g>
          <path class="cls-28" d="M149.35,399.18c-.17,5.71-4.49,10.22-9.64,10.06s-9.18-4.92-9-10.63,4.49-10.22,9.63-10.06S149.52,393.46,149.35,399.18Z"/>
          <g>
            <path class="cls-29" d="M133.65,399.78c-.12,1.92.95,3.93,2.06,5.46a18.78,18.78,0,0,0,2.24,2.58s5.94-1.52,7.58-4.93c.34-.72,1.9-5.19,1.9-5.19s.47-1.08-.41-1.57a28.88,28.88,0,0,1-3-1.71,8.17,8.17,0,0,0-2-1.29c-.57-.21-.83-.09-1.87,0a33,33,0,0,1-3.54-.09c-1.05,0-1.18,1.17-1.18,1.17S133.71,399,133.65,399.78Z"/>
            <path class="cls-30" d="M135.41,394.2s-1.7,4.77-1.76,5.58c-.25,3.85,4.3,8,4.3,8h0s6-1.52,7.58-4.93c.34-.72,1.9-5.19,1.9-5.19s.47-1.08-.41-1.58a27.89,27.89,0,0,1-3-1.7,8.18,8.18,0,0,0-2-1.29c-.56-.21-.82-.09-1.86,0a30.94,30.94,0,0,1-3.55-.08C135.54,393,135.41,394.2,135.41,394.2Zm.94-.2.87,0a10.75,10.75,0,0,0,2.73,0c1.89-.36,2.47.59,3.37,1.24a16.56,16.56,0,0,0,2.32,1.35l.75.39a.78.78,0,0,1,0,.22.15.15,0,0,0,0,.07c-.59,1.71-1.63,4.6-1.86,5.09-.71,1.48-2.49,2.57-3.88,3.23a19.34,19.34,0,0,1-2.29.91,18.6,18.6,0,0,1-1.61-1.93c-.88-1.24-2-3.3-1.84-4.95a35.18,35.18,0,0,1,1.43-5.41A2.08,2.08,0,0,1,136.35,394Z"/>
            <path class="cls-31" d="M133.65,399.78c-.15,2.23,1.32,4.58,2.59,6.15-1.16-1.55-2.32-3.64-2.19-5.63.06-.81,1.76-5.58,1.76-5.58s.13-1.21,1.18-1.18a33,33,0,0,0,3.54.09c1-.08,1.3-.19,1.87,0a8.84,8.84,0,0,1,2,1.29,27.17,27.17,0,0,0,3,1.71l.08.06a1,1,0,0,0-.48-.57,28.88,28.88,0,0,1-3-1.71,8.17,8.17,0,0,0-2-1.29c-.57-.21-.83-.09-1.87,0a30.54,30.54,0,0,1-3.54-.09c-1.05,0-1.18,1.18-1.18,1.18S133.71,399,133.65,399.78Z"/>
            <path class="cls-30" d="M139.58,399.88a.35.35,0,0,0,.09.35l-.07.28a.07.07,0,0,0,.05.09l.22.06a.08.08,0,0,0,.1-.05l.07-.28a.38.38,0,0,0,0-.72A.37.37,0,0,0,139.58,399.88Z"/>
            <path class="cls-30" d="M139.58,398l-.14.55,1.65.43.14-.55a.85.85,0,0,0-.6-1A.86.86,0,0,0,139.58,398Z"/>
            <path class="cls-30" d="M136.6,395.53s-1,3.51-1.09,4.11c-.21,2.86,3,6.15,3,6.15h0s4.22-1.19,5.41-3.74c.25-.54,1.4-3.89,1.4-3.89s.35-.81-.27-1.17a17,17,0,0,1-2.12-1.23c-.36-.27-.69-.49-1-.66a4.56,4.56,0,0,0-.6-.33h0a2.23,2.23,0,0,0-1.24-.1,18.66,18.66,0,0,1-2.5,0C136.85,394.65,136.6,395.53,136.6,395.53Zm1.51,3.12a.47.47,0,0,1,.56-.34l.13,0,.14-.55a1.51,1.51,0,1,1,2.93.77l-.14.55.12,0a.47.47,0,0,1,.33.57l-.57,2.13a.46.46,0,0,1-.56.34l-3.18-.84a.46.46,0,0,1-.32-.57Z"/>
            <path class="cls-31" d="M135.52,399.64c-.16,2.05,1.44,4.34,2.35,5.46-.91-1.22-2.09-3.17-2-4.94,0-.6,1.08-4.12,1.08-4.12s.25-.88,1-.87a18.68,18.68,0,0,0,2.5,0,2.24,2.24,0,0,1,1.23.11h0a4.56,4.56,0,0,1,.6.33c.28.16.61.39,1,.65a15.65,15.65,0,0,0,2.07,1.21A.72.72,0,0,0,145,397a18.31,18.31,0,0,1-2.12-1.23,9.93,9.93,0,0,0-1-.66,4.56,4.56,0,0,0-.6-.33h0a2.19,2.19,0,0,0-1.23-.1,20.52,20.52,0,0,1-2.5,0c-.73,0-1,.87-1,.87S135.56,399,135.52,399.64Z"/>
          </g>
        </g>
      </g>
      <g id="cabeza">
        <g>
          <path class="cls-5" d="M163.18,343.27c11,14.15,44.63,11.45,54,10.56s25.25-2.53,31-19.78,2.86-43.57-12.86-57.25-57.8-11.45-72.1,7S159.37,338.36,163.18,343.27Z"/>
          <path class="cls-16" d="M166.09,287.55c.62-.22,13.61-10.32,37.13-12.34,8.09-.69,20.71,0,28.81,1.13-.8-.86-12.43-7.58-36.43-5.08A47.36,47.36,0,0,0,166.09,287.55Z"/>
          <path class="cls-7" d="M208.84,283.37c-7.57.12-15.15.66-22.29,3.37l-.16.07c7.4,15.69,8,36.13,3.67,50.75a30.83,30.83,0,0,1-6.3,11.84c13.08,2.31,27.72,1.11,33.41.57,6.2-.59,15.25-1.51,22.32-7.06a36.17,36.17,0,0,0,2-5.35c4.4-14.81,3.72-35.6-4-51.36A122.05,122.05,0,0,0,208.84,283.37Z"/>
          <path class="cls-32" d="M181.47,297.3c4.36-5.93,16.26-7.48,31.16-8.37,19.23-1.15,25.74,2.33,27.7,4.55s5.38,13.27,4.65,24-.86,14-5.27,16.63-17.17,5.28-25.42,5.48c-15.61.38-23.48-.38-28.7-3.45-2.67-1.57-6.06-10-6.6-20.42S179.21,300.38,181.47,297.3Z"/>
          <path class="cls-33" d="M212.09,290.58c-9.25.54-17.3,1.34-23,3.34,5,13.74,5,30,1.31,42.1,0,.14-.09.27-.14.41,4.95,1.43,12,1.77,23.39,1.5,7.9-.18,20.14-2.63,24.38-5.12a7.56,7.56,0,0,0,3.32-3.46,71.92,71.92,0,0,0-2.45-34.16,3.55,3.55,0,0,0-.27-.35C236.79,292.77,230.55,289.51,212.09,290.58Z"/>
          <path class="cls-9" d="M171.36,307.17c-.26,5.83-3.52,10.42-7.28,10.25s-6.59-5-6.33-10.86,3.51-10.42,7.27-10.25S171.62,301.34,171.36,307.17Z"/>
          <path class="cls-34" d="M168.38,306.73c-.18,4.09-2.18,7.33-4.45,7.23s-4-3.5-3.8-7.6,2.18-7.32,4.46-7.22S168.56,302.64,168.38,306.73Z"/>
          <path class="cls-27" d="M168.44,307l-.38,0,.38,0a14.38,14.38,0,0,0-1.71-7.77c-1.27-2.16-3-3.41-5-3.49-4-.18-7.41,4.59-7.68,10.62s2.74,11.09,6.71,11.26H161C164.85,317.67,168.18,313,168.44,307Zm-6.74-10.49c1.69.07,3.23,1.18,4.36,3.11a13.58,13.58,0,0,1,1.61,7.34c-.25,5.61-3.33,10-6.87,9.89s-6.22-4.85-6-10.46,3.23-9.89,6.69-9.89Z"/>
          <path class="cls-7" d="M161.23,320.68l2.76.1s1.17,11.46,4.48,18.19,8,8.88,8,8.88-7.06-2.29-11.3-11C162.12,330.56,161.23,320.68,161.23,320.68Z"/>
          <path class="cls-35" d="M184.06,298.18v0a1.46,1.46,0,0,0,2.1.49c1.34-.92,3.39-2.29,4.56-2.92,1.86-1,11-4.41,11-4.41s-9.2.19-17,4.44A1.75,1.75,0,0,0,184.06,298.18Z"/>
        </g>
        <path class="cls-36" d="M176.84,305.83c0,1.81-.84,3.27-1.87,3.27s-1.88-1.46-1.88-3.27.84-3.28,1.88-3.28S176.84,304,176.84,305.83Z"/>
      </g>
      <g id="ojos">
        <g>
          <rect class="cls-37" x="199.16" y="301.38" width="13.26" height="17.33" rx="5.9"/>
          <rect class="cls-37" x="200.55" y="303.24" width="10.48" height="13.6" rx="5.24"/>
          <rect class="cls-38" x="202.32" y="304.99" width="7.27" height="10.59" rx="3.64"/>
          <path class="cls-39" d="M208.82,309.07h-6a.29.29,0,0,1,0-.58h6a.29.29,0,0,1,0,.58Z"/>
          <path class="cls-39" d="M208.82,310.33h-6a.29.29,0,1,1,0-.57h6a.29.29,0,0,1,0,.57Z"/>
          <path class="cls-39" d="M208.82,311.64h-6a.29.29,0,1,1,0-.58h6a.29.29,0,0,1,0,.58Z"/>
          <path class="cls-39" d="M208.05,306.65H203.6a.29.29,0,1,1,0-.58h4.45a.29.29,0,1,1,0,.58Z"/>
          <path class="cls-39" d="M208.82,308h-6a.29.29,0,1,1,0-.58h6a.29.29,0,0,1,0,.58Z"/>
          <path class="cls-39" d="M208.82,313.2h-6a.29.29,0,1,1,0-.58h6a.29.29,0,0,1,0,.58Z"/>
          <path class="cls-39" d="M208.82,314.46h-6a.29.29,0,1,1,0-.58h6a.29.29,0,0,1,0,.58Z"/>
        </g>
        <g>
          <rect class="cls-37" x="222.98" y="301.07" width="13.26" height="17.33" rx="5.9"/>
          <rect class="cls-37" x="224.37" y="302.93" width="10.48" height="13.6" rx="5.24"/>
          <rect class="cls-38" x="226.14" y="304.68" width="7.27" height="10.59" rx="3.64"/>
          <path class="cls-39" d="M232.64,308.76h-6a.29.29,0,1,1,0-.58h6a.29.29,0,0,1,0,.58Z"/>
          <path class="cls-39" d="M232.64,310h-6a.29.29,0,1,1,0-.58h6a.29.29,0,0,1,0,.58Z"/>
          <path class="cls-39" d="M232.64,311.33h-6a.29.29,0,1,1,0-.58h6a.29.29,0,0,1,0,.58Z"/>
          <path class="cls-39" d="M231.87,306.34h-4.45a.29.29,0,1,1,0-.58h4.45a.29.29,0,1,1,0,.58Z"/>
          <path class="cls-39" d="M232.64,307.65h-6a.29.29,0,1,1,0-.58h6a.29.29,0,0,1,0,.58Z"/>
          <path class="cls-39" d="M232.64,312.88h-6a.28.28,0,0,1-.29-.28.29.29,0,0,1,.29-.29h6a.28.28,0,0,1,.28.29A.27.27,0,0,1,232.64,312.88Z"/>
          <path class="cls-39" d="M232.64,314.15h-6a.29.29,0,1,1,0-.58h6a.29.29,0,0,1,0,.58Z"/>
        </g>
      </g>
      <path id="boca" class="cls-40" d="M208.56,327.6c6,.76,16.72,1.35,16.72,1.35s-9.5,1-15.69-.1S202.12,326.78,208.56,327.6Z"/>
    </g>
  </g>
</svg>
